# xmcd
#
# Track frame offsets:
#       150
#       18774
#       35318
#       46666
#       62671
#       76475
#       92926
#       107096
#       129364
#       140549
#       154457
#       170497
#       188466
#       207823
#
# Disc length: 2989 seconds
#
# Revision: 1
# Processed by: cddbd v1.5.2PL0 Copyright (c) Steve Scherf et al.
# Submitted via: FreeDbEdit v0.1
#
DISCID=af0bab0e
DTITLE=Dick van Altena - Sings the Hits of Kris Kristoffersom
DYEAR=2004
DGENRE=Country
TTITLE0=Me and Bobby McGee
TTITLE1=Somebody Nobody Knows
TTITLE2=Jesus Was a Capricorn
TTITLE3=For the Good Times
TTITLE4=When I Loved Her
TTITLE5=Come Sundown
TTITLE6=I'd Rather Be Sorry (Duet With Doreen)
TTITLE7=Sundaymorning Comin' Down
TTITLE8=Help Me Make It Through the Night
TTITLE9=Kiss the World Goodbye
TTITLE10=Why Me
TTITLE11=Lovin' Her Was Easier
TTITLE12=The Silver Tongued Devil and I
TTITLE13=Road Warrior's Lament
EXTD=YEAR: 2004
EXTT0=
EXTT1=
EXTT2=
EXTT3=
EXTT4=
EXTT5=
EXTT6=
EXTT7=
EXTT8=
EXTT9=
EXTT10=
EXTT11=
EXTT12=
EXTT13=
PLAYORDER=
